<?xml version="1.0" encoding="utf-8"?><svg viewBox="0 0 32 32" xmlns="http://www.w3.org/2000/svg" xmlns:xlink="http://www.w3.org/1999/xlink"><style>:root>svg{display:none}:root>svg:target{display:block}</style><svg viewBox="0 0 12 8" id="angle" xmlns="http://www.w3.org/2000/svg"><path fill-rule="evenodd" clip-rule="evenodd" d="M5.657 5.805L10.559.903l.755.754-5.657 5.657L0 1.657.754.903l4.903 4.902z"/></svg><svg viewBox="0 0 30 28" id="basket" xmlns="http://www.w3.org/2000/svg"><path d="M28.816 19.85H8.902l1-2.114 16.613-.03c.562 0 1.044-.417 1.144-.994l2.3-13.366a1.24 1.24 0 00-.25-.986 1.177 1.177 0 00-.399-.318 1.135 1.135 0 00-.49-.116L7.684 1.853l-.18-.881C7.39.41 6.901 0 6.346 0H1.18C.867 0 .567.13.346.359A1.25 1.25 0 000 1.225c0 .325.124.637.346.867.221.23.521.358.834.358h4.21l.79 3.895 1.943 9.764-2.502 4.238a1.253 1.253 0 00-.1 1.277c.2.413.605.673 1.054.673h2.1a3.645 3.645 0 00-.69 2.142c0 1.964 1.539 3.561 3.432 3.561s3.43-1.597 3.43-3.561c0-.774-.247-1.527-.688-2.142h5.387a3.645 3.645 0 00-.689 2.142c0 1.964 1.539 3.561 3.431 3.561 1.893 0 3.431-1.597 3.431-3.561 0-.774-.247-1.527-.688-2.142h3.789c.648 0 1.18-.548 1.18-1.225a1.253 1.253 0 00-.35-.864 1.163 1.163 0 00-.834-.358zM8.176 4.27l19.256.065-1.886 10.961-15.126.028L8.176 4.27zm3.24 21.266c-.581 0-1.056-.493-1.056-1.097s.475-1.097 1.057-1.097 1.056.493 1.056 1.097c0 .29-.11.57-.309.775a1.037 1.037 0 01-.747.322zm10.872 0c-.581 0-1.056-.493-1.056-1.097s.475-1.097 1.056-1.097c.582 0 1.057.493 1.057 1.097 0 .29-.111.57-.31.775a1.038 1.038 0 01-.747.322z"/></svg><svg viewBox="0 0 22 22" id="mdi_call" xmlns="http://www.w3.org/2000/svg"><path d="M18.343 14.098a10.49 10.49 0 01-3.236-.513.896.896 0 00-.926.22l-1.44 1.806c-2.593-1.238-5.023-3.575-6.315-6.261l1.787-1.522a.935.935 0 00.22-.935 10.223 10.223 0 01-.513-3.235.916.916 0 00-.907-.908H3.84c-.495 0-1.091.22-1.091.908 0 8.515 7.086 15.592 15.593 15.592.65 0 .907-.578.907-1.082v-3.162a.916.916 0 00-.907-.908z"/></svg><svg viewBox="0 0 26 28" id="personal-area" xmlns="http://www.w3.org/2000/svg"><path d="M24.98 22.85a13.17 13.17 0 00-2.787-4.203 12.977 12.977 0 00-4.131-2.835l-.042-.018a8.752 8.752 0 003.554-7.07C21.574 3.904 17.737 0 13 0S4.426 3.905 4.426 8.724c0 2.909 1.4 5.487 3.554 7.073-.014.008-.028.011-.042.018a12.864 12.864 0 00-4.131 2.835 13.227 13.227 0 00-2.787 4.204A13.269 13.269 0 000 27.712a.286.286 0 00.079.203.276.276 0 00.198.085H2.35a.278.278 0 00.277-.274 10.576 10.576 0 013.035-7.187c1.96-1.994 4.564-3.092 7.337-3.092 2.773 0 5.376 1.098 7.337 3.092a10.576 10.576 0 013.035 7.187.276.276 0 00.277.274h2.074a.273.273 0 00.198-.085.282.282 0 00.079-.203 13.302 13.302 0 00-1.02-4.862zM13 14.774c-1.587 0-3.08-.63-4.204-1.773a6.064 6.064 0 01-1.743-4.277c0-1.615.62-3.135 1.743-4.278A5.857 5.857 0 0113 2.673c1.587 0 3.08.63 4.204 1.773a6.064 6.064 0 011.743 4.278A6.064 6.064 0 0117.204 13 5.857 5.857 0 0113 14.774z"/></svg><svg viewBox="0 0 32 32" id="search_arrow" xmlns="http://www.w3.org/2000/svg"><path d="M14 11l5 5-5 5"/><circle cx="16" cy="16" r="15"/></svg></svg>